solid OpenSCAD_Model
  facet normal 1 0 0
    outer loop
      vertex 7.45 4.9 3.5
      vertex 7.45 -4.9 3.5
      vertex 7.45 4.9 0.5
    endloop
  endfacet
  facet normal 1 -0 0
    outer loop
      vertex 7.45 4.9 0.5
      vertex 7.45 6 -0.5
      vertex 7.45 6 0.5
    endloop
  endfacet
  facet normal 1 0 0
    outer loop
      vertex 7.45 -4.9 0.5
      vertex 7.45 4.9 0.5
      vertex 7.45 -4.9 3.5
    endloop
  endfacet
  facet normal 1 0 0
    outer loop
      vertex 7.45 4.9 0.5
      vertex 7.45 -4.9 0.5
      vertex 7.45 6 -0.5
    endloop
  endfacet
  facet normal 1 0 0
    outer loop
      vertex 7.45 -6 -0.5
      vertex 7.45 -4.9 0.5
      vertex 7.45 -6 0.5
    endloop
  endfacet
  facet normal 1 0 0
    outer loop
      vertex 7.45 -4.9 0.5
      vertex 7.45 -6 -0.5
      vertex 7.45 6 -0.5
    endloop
  endfacet
  facet normal 0 0 1
    outer loop
      vertex 7.45 6 0.5
      vertex 5.25 4.9 0.5
      vertex 7.45 4.9 0.5
    endloop
  endfacet
  facet normal 0 0 1
    outer loop
      vertex 5.25 4.9 0.5
      vertex 0.75 4 0.5
      vertex 5.25 -4.9 0.5
    endloop
  endfacet
  facet normal 0 0 1
    outer loop
      vertex 7.45 6 0.5
      vertex 0.75 4 0.5
      vertex 5.25 4.9 0.5
    endloop
  endfacet
  facet normal 0 0 1
    outer loop
      vertex 7.45 6 0.5
      vertex -4.25 4.9 0.5
      vertex 0.75 4 0.5
    endloop
  endfacet
  facet normal -0 0 1
    outer loop
      vertex -7.45 6 0.5
      vertex -4.25 4.9 0.5
      vertex 7.45 6 0.5
    endloop
  endfacet
  facet normal 0 0 1
    outer loop
      vertex -4.25 4.9 0.5
      vertex -7.45 6 0.5
      vertex -7.45 4.9 0.5
    endloop
  endfacet
  facet normal -0 0 1
    outer loop
      vertex 5.25 -4.9 0.5
      vertex 7.45 -6 0.5
      vertex 7.45 -4.9 0.5
    endloop
  endfacet
  facet normal -0 0 1
    outer loop
      vertex 0.75 -4 0.5
      vertex 5.25 -4.9 0.5
      vertex 0.75 4 0.5
    endloop
  endfacet
  facet normal 0 0 1
    outer loop
      vertex 0.75 -4 0.5
      vertex 7.45 -6 0.5
      vertex 5.25 -4.9 0.5
    endloop
  endfacet
  facet normal 0 0 1
    outer loop
      vertex -4.25 -4.9 0.5
      vertex 0.75 -4 0.5
      vertex -4.25 -4 0.5
    endloop
  endfacet
  facet normal 0 0 1
    outer loop
      vertex 0.75 -4 0.5
      vertex -4.25 -4.9 0.5
      vertex 7.45 -6 0.5
    endloop
  endfacet
  facet normal 0 0 1
    outer loop
      vertex -7.45 -6 0.5
      vertex -4.25 -4.9 0.5
      vertex -7.45 -4.9 0.5
    endloop
  endfacet
  facet normal 0 0 1
    outer loop
      vertex -4.25 -4.9 0.5
      vertex -7.45 -6 0.5
      vertex 7.45 -6 0.5
    endloop
  endfacet
  facet normal 0 0 1
    outer loop
      vertex 0.75 4 0.5
      vertex -4.25 4.9 0.5
      vertex -4.25 4 0.5
    endloop
  endfacet
  facet normal 0 0 -1
    outer loop
      vertex 7.45 -6 -0.5
      vertex 0.75 -4 -0.5
      vertex 7.45 6 -0.5
    endloop
  endfacet
  facet normal 0 0 -1
    outer loop
      vertex -7.45 -6 -0.5
      vertex 0.75 -4 -0.5
      vertex 7.45 -6 -0.5
    endloop
  endfacet
  facet normal -0 0 -1
    outer loop
      vertex -4.25 -4 -0.5
      vertex -7.45 -6 -0.5
      vertex -4.25 4 -0.5
    endloop
  endfacet
  facet normal -0 0 -1
    outer loop
      vertex 0.75 -4 -0.5
      vertex -7.45 -6 -0.5
      vertex -4.25 -4 -0.5
    endloop
  endfacet
  facet normal 0 0 -1
    outer loop
      vertex 0.75 4 -0.5
      vertex 7.45 6 -0.5
      vertex 0.75 -4 -0.5
    endloop
  endfacet
  facet normal 0 0 -1
    outer loop
      vertex -7.45 6 -0.5
      vertex 0.75 4 -0.5
      vertex -4.25 4 -0.5
    endloop
  endfacet
  facet normal 0 0 -1
    outer loop
      vertex 0.75 4 -0.5
      vertex -7.45 6 -0.5
      vertex 7.45 6 -0.5
    endloop
  endfacet
  facet normal 0 0 -1
    outer loop
      vertex -7.45 6 -0.5
      vertex -4.25 4 -0.5
      vertex -7.45 -6 -0.5
    endloop
  endfacet
  facet normal -1 0 0
    outer loop
      vertex -7.45 6 -0.5
      vertex -7.45 4.9 0.5
      vertex -7.45 6 0.5
    endloop
  endfacet
  facet normal -1 0 0
    outer loop
      vertex -7.45 4.9 0.5
      vertex -7.45 -4.9 0.5
      vertex -7.45 4.9 2.9
    endloop
  endfacet
  facet normal -1 0 0
    outer loop
      vertex -7.45 6 -0.5
      vertex -7.45 -4.9 0.5
      vertex -7.45 4.9 0.5
    endloop
  endfacet
  facet normal -1 0 0
    outer loop
      vertex -7.45 -6 -0.5
      vertex -7.45 -4.9 0.5
      vertex -7.45 6 -0.5
    endloop
  endfacet
  facet normal -1 -0 0
    outer loop
      vertex -7.45 -4.9 0.5
      vertex -7.45 -6 -0.5
      vertex -7.45 -6 0.5
    endloop
  endfacet
  facet normal -1 -0 0
    outer loop
      vertex -7.45 4.9 2.9
      vertex -7.45 -4.9 0.5
      vertex -7.45 -4.9 2.9
    endloop
  endfacet
  facet normal 0 1 -0
    outer loop
      vertex 7.45 6 -0.5
      vertex -7.45 6 0.5
      vertex 7.45 6 0.5
    endloop
  endfacet
  facet normal 0 1 0
    outer loop
      vertex -7.45 6 0.5
      vertex 7.45 6 -0.5
      vertex -7.45 6 -0.5
    endloop
  endfacet
  facet normal 0 -1 0
    outer loop
      vertex -7.45 -6 -0.5
      vertex 7.45 -6 0.5
      vertex -7.45 -6 0.5
    endloop
  endfacet
  facet normal 0 -1 -0
    outer loop
      vertex 7.45 -6 0.5
      vertex -7.45 -6 -0.5
      vertex 7.45 -6 -0.5
    endloop
  endfacet
  facet normal -1 0 0
    outer loop
      vertex 0.75 -4 -0.5
      vertex 0.75 4 0.5
      vertex 0.75 4 -0.5
    endloop
  endfacet
  facet normal -1 -0 0
    outer loop
      vertex 0.75 4 0.5
      vertex 0.75 -4 -0.5
      vertex 0.75 -4 0.5
    endloop
  endfacet
  facet normal 1 -0 0
    outer loop
      vertex -4.25 -4 0.5
      vertex -4.25 4 -0.5
      vertex -4.25 4 0.5
    endloop
  endfacet
  facet normal 1 0 0
    outer loop
      vertex -4.25 4 -0.5
      vertex -4.25 -4 0.5
      vertex -4.25 -4 -0.5
    endloop
  endfacet
  facet normal 0 -1 0
    outer loop
      vertex -4.25 4 -0.5
      vertex 0.75 4 0.5
      vertex -4.25 4 0.5
    endloop
  endfacet
  facet normal 0 -1 -0
    outer loop
      vertex 0.75 4 0.5
      vertex -4.25 4 -0.5
      vertex 0.75 4 -0.5
    endloop
  endfacet
  facet normal 0 1 -0
    outer loop
      vertex 0.75 -4 -0.5
      vertex -4.25 -4 0.5
      vertex 0.75 -4 0.5
    endloop
  endfacet
  facet normal 0 1 0
    outer loop
      vertex -4.25 -4 0.5
      vertex 0.75 -4 -0.5
      vertex -4.25 -4 -0.5
    endloop
  endfacet
  facet normal -0 0 1
    outer loop
      vertex 5.25 4.9 3.5
      vertex 7.45 -4.9 3.5
      vertex 7.45 4.9 3.5
    endloop
  endfacet
  facet normal 0 0 1
    outer loop
      vertex 7.45 -4.9 3.5
      vertex 5.25 4.9 3.5
      vertex 5.25 -4.9 3.5
    endloop
  endfacet
  facet normal -1 0 0
    outer loop
      vertex 5.25 -4.9 0.5
      vertex 5.25 4.9 3.5
      vertex 5.25 4.9 0.5
    endloop
  endfacet
  facet normal -1 -0 0
    outer loop
      vertex 5.25 4.9 3.5
      vertex 5.25 -4.9 0.5
      vertex 5.25 -4.9 3.5
    endloop
  endfacet
  facet normal 0 1 -0
    outer loop
      vertex 7.45 4.9 0.5
      vertex 5.25 4.9 3.5
      vertex 7.45 4.9 3.5
    endloop
  endfacet
  facet normal 0 1 0
    outer loop
      vertex 5.25 4.9 3.5
      vertex 7.45 4.9 0.5
      vertex 5.25 4.9 0.5
    endloop
  endfacet
  facet normal 0 -1 0
    outer loop
      vertex 5.25 -4.9 0.5
      vertex 7.45 -4.9 3.5
      vertex 5.25 -4.9 3.5
    endloop
  endfacet
  facet normal 0 -1 -0
    outer loop
      vertex 7.45 -4.9 3.5
      vertex 5.25 -4.9 0.5
      vertex 7.45 -4.9 0.5
    endloop
  endfacet
  facet normal 1 0 0
    outer loop
      vertex -4.25 4.9 2.9
      vertex -4.25 4 0.5
      vertex -4.25 4.9 0.5
    endloop
  endfacet
  facet normal 1 0 0
    outer loop
      vertex -4.25 4.9 2.9
      vertex -4.25 -4 0.5
      vertex -4.25 4 0.5
    endloop
  endfacet
  facet normal 1 -0 0
    outer loop
      vertex -4.25 -4.9 2.9
      vertex -4.25 -4 0.5
      vertex -4.25 4.9 2.9
    endloop
  endfacet
  facet normal 1 0 0
    outer loop
      vertex -4.25 -4 0.5
      vertex -4.25 -4.9 2.9
      vertex -4.25 -4.9 0.5
    endloop
  endfacet
  facet normal -0 0 1
    outer loop
      vertex -7.45 4.9 2.9
      vertex -4.25 -4.9 2.9
      vertex -4.25 4.9 2.9
    endloop
  endfacet
  facet normal 0 0 1
    outer loop
      vertex -4.25 -4.9 2.9
      vertex -7.45 4.9 2.9
      vertex -7.45 -4.9 2.9
    endloop
  endfacet
  facet normal 0 1 -0
    outer loop
      vertex -4.25 4.9 0.5
      vertex -7.45 4.9 2.9
      vertex -4.25 4.9 2.9
    endloop
  endfacet
  facet normal 0 1 0
    outer loop
      vertex -7.45 4.9 2.9
      vertex -4.25 4.9 0.5
      vertex -7.45 4.9 0.5
    endloop
  endfacet
  facet normal 0 -1 0
    outer loop
      vertex -7.45 -4.9 0.5
      vertex -4.25 -4.9 2.9
      vertex -7.45 -4.9 2.9
    endloop
  endfacet
  facet normal 0 -1 -0
    outer loop
      vertex -4.25 -4.9 2.9
      vertex -7.45 -4.9 0.5
      vertex -4.25 -4.9 0.5
    endloop
  endfacet
endsolid OpenSCAD_Model
